<?xml version="1.0" encoding="UTF-8" standalone="no"?>
<!-- Created with Inkscape (http://www.inkscape.org/) -->

<svg
   xmlns:dc="http://purl.org/dc/elements/1.1/"
   xmlns:cc="http://creativecommons.org/ns#"
   xmlns:rdf="http://www.w3.org/1999/02/22-rdf-syntax-ns#"
   xmlns:svg="http://www.w3.org/2000/svg"
   xmlns="http://www.w3.org/2000/svg"
   xmlns:sodipodi="http://sodipodi.sourceforge.net/DTD/sodipodi-0.dtd"
   xmlns:inkscape="http://www.inkscape.org/namespaces/inkscape"
   id="svg2"
   version="1.1"
   inkscape:version="0.48.4 r9939"
   width="221.77644"
   height="150"
   xml:space="preserve"
   sodipodi:docname="logo.svg"><metadata
     id="metadata8"><rdf:RDF><cc:Work
         rdf:about=""><dc:format>image/svg+xml</dc:format><dc:type
           rdf:resource="http://purl.org/dc/dcmitype/StillImage" /><dc:title /></cc:Work></rdf:RDF></metadata><defs
     id="defs6"><clipPath
       clipPathUnits="userSpaceOnUse"
       id="clipPath18"><path
         d="m 0,425.2 708.66,0 L 708.66,0 0,0 0,425.2 z"
         id="path20"
         inkscape:connector-curvature="0" /></clipPath><clipPath
       clipPathUnits="userSpaceOnUse"
       id="clipPath28"><path
         d="m 0,425.2 708.66,0 L 708.66,0 0,0 0,425.2 z"
         id="path30"
         inkscape:connector-curvature="0" /></clipPath></defs><sodipodi:namedview
     pagecolor="#ffffff"
     bordercolor="#666666"
     borderopacity="1"
     objecttolerance="10"
     gridtolerance="10"
     guidetolerance="10"
     inkscape:pageopacity="0"
     inkscape:pageshadow="2"
     inkscape:window-width="1366"
     inkscape:window-height="729"
     id="namedview4"
     showgrid="false"
     inkscape:zoom="1.124633"
     inkscape:cx="271.45146"
     inkscape:cy="155.7151"
     inkscape:window-x="0"
     inkscape:window-y="0"
     inkscape:window-maximized="1"
     inkscape:current-layer="g10"
     fit-margin-top="0"
     fit-margin-left="0"
     fit-margin-right="0"
     fit-margin-bottom="0" /><g
     id="g10"
     inkscape:groupmode="layer"
     inkscape:label="LogoCaracol"
     transform="matrix(1.25,0,0,-1.25,-103.72548,186.33862)"><g
       id="g14"><g
         id="g16"
         clip-path="url(#clipPath18)"><path
           d="M 708.66,0 0,0 l 0,425.2 708.66,0 0,-425.2 z"
           style="fill:none;stroke:#2b2b2a;stroke-width:1;stroke-linecap:butt;stroke-linejoin:miter;stroke-miterlimit:10;stroke-opacity:1;stroke-dasharray:none"
           id="path22"
           inkscape:connector-curvature="0" /></g></g><g
       id="g24"
       transform="matrix(0.32692326,0,0,0.32692326,55.852165,19.566947)"><g
         id="g26"
         clip-path="url(#clipPath28)"><g
           id="g32"
           transform="translate(300.4697,393.731)"><path
             d="m 0,0 c 10.86,3.95 22.75,2.44 33.7,-0.36 -5.71,-0.67 -11.89,-2.22 -15.57,-7.01 -4.55,-5.46 -4.76,-13.04 -3.47,-19.71 2.7,-16.62 0.95,-33.58 -2.28,-49.99 -5.81,-28.77 -19.41,-55.75 -38.32,-78.15 -11.89,-14.23 -25.77,-26.75 -40.86,-37.51 24.63,22.75 44.69,51.03 55.24,83.04 7.63,22.94 10.16,47.5 7.9,71.55 -0.8,7.81 -3.22,15.31 -4.63,23 C -9.34,-8.96 -6.03,-2.2 0,0"
             style="fill:#ffffff;fill-opacity:1;fill-rule:nonzero;stroke:none"
             id="path34"
             inkscape:connector-curvature="0" /></g><g
           id="g36"
           transform="translate(323.8799,386.041)"><path
             d="m 0,0 c 4.76,3.46 10.96,3.42 16.58,3.28 2.04,0.09 3.68,-1.26 5.26,-2.36 3.81,-2.82 7.58,-6.11 9.31,-10.66 2.54,-6.42 4.38,-13.1 6.07,-19.79 3.14,-18.23 1.65,-37.36 -4.9,-54.71 -5.87,-15.8 -15.53,-29.9 -26.47,-42.62 -20.62,-23.86 -46.45,-42.68 -73.78,-58.14 -13.12,-7.2 -26.26,-14.39 -39.7,-20.96 -1.77,3.82 1.93,6.15 4.76,7.789 28.76,17.631 54.33,41.061 72.3,69.771 16.39,25.96 25.64,56.27 26.98,86.93 0.65,9.08 -0.72,18.11 -1.82,27.09 C -6.04,-9.13 -4.47,-3.2 0,0"
             style="fill:#fffffe;fill-opacity:1;fill-rule:nonzero;stroke:none"
             id="path38"
             inkscape:connector-curvature="0" /></g><g
           id="g40"
           transform="translate(420.2695,374.751)"><path
             d="m 0,0 c 12.88,11.93 31.45,16.37 48.61,14.12 26.21,-3.37 49.37,-22.75 57.87,-47.69 5.65,-15.94 5.621,-33.8 -0.12,-49.71 C 101.051,-98.4 90.7,-111.33 78.45,-121.47 66.021,-131.71 50.33,-138 34.2,-138.73 c -10.47,-0.71 -20.809,1.49 -31.179,2.5 5.349,-6.73 11.719,-12.87 15.259,-20.85 4.79,-9.99 5.151,-22.24 -0.189,-32.1 -7.57,-14.09 -24.061,-22.519 -39.881,-21.39 -17.739,1.859 -34.239,10.099 -52.149,10.849 -13.54,0.75 -27.02,-1.468 -40.221,-4.279 -20.31,-4.51 -41.79,-5.09 -62.04,0.02 20.79,7.73 42.52,12.97 62.68,22.39 28.84,13.209 54.18,33.29 75.291,56.84 6.16,6.51 11.189,13.94 16.349,21.23 16.721,-11.14 36.87,-17.34 57.01,-16.58 13.141,0.5 26.08,5.33 36.19,13.76 24.85,19.58 28.97,59.52 10.08,84.5 -8.179,10.71 -20.57,18.62 -34.21,19.54 -10.99,0.7 -22.74,-1.31 -31.65,-8.16 -11.85,-9 -18.5,-23.94 -18.479,-38.69 0,-6.49 1.74,-13.12 5.7,-18.35 6.689,-8.78 18.349,-13.88 29.33,-11.68 6.279,1.22 13.21,3.71 16.43,9.69 2.53,4.43 1.87,9.73 1.03,14.52 -5.011,-2.99 -9.99,-7.53 -16.25,-6.79 -6.891,1.14 -13.04,7.45 -12.841,14.65 0.261,8.98 6.971,17.53 15.83,19.49 10.681,2.36 22.301,-3.11 27.94,-12.35 4.081,-6.55 4.67,-14.59 4.31,-22.11 -0.58,-10.78 -6.229,-21.26 -15.39,-27.11 -17.08,-11.55 -41.44,-9.12 -56.75,4.35 -9.75,8.29 -14.79,21.04 -15.33,33.63 C -20.12,-32.53 -13.609,-13.09 0,0"
             style="fill:#ffffff;fill-opacity:1;fill-rule:nonzero;stroke:none"
             id="path42"
             inkscape:connector-curvature="0" /></g><g
           id="g44"
           transform="translate(350.8994,388.021)"><path
             d="m 0,0 c 6.03,-1.9 12.341,-3.47 17.48,-7.36 5.93,-4.35 12.201,-9.53 14.041,-17 1.66,-6.26 2.65,-12.68 3.62,-19.07 1.95,-24.49 -4.901,-49.53 -19.021,-69.63 -14.729,-21.04 -34.64,-37.97 -56.05,-51.91 -20.949,-13.58 -43.699,-24.13 -66.98,-33.07 28.4,15.01 55.761,32.67 78.471,55.57 18.71,19.02 35.299,41.58 41.4,68 4.029,18.14 3.97,37.54 -2.08,55.24 C 8.9,-12.04 6.07,-4.74 0,0"
             style="fill:#ffffff;fill-opacity:1;fill-rule:nonzero;stroke:none"
             id="path46"
             inkscape:connector-curvature="0" /></g><g
           id="g48"
           transform="translate(103.0698,166.751)"><path
             d="m 0,0 c 5.02,1.779 9.74,4.9 15.22,4.91 5.58,0 10.6,-2.689 15.7,-4.59 8.62,-3.381 15.21,-10.781 18.84,-19.16 1.94,-8.26 1.49,-16.82 1.52,-25.24 -7.99,0.01 -15.97,0 -23.96,0 -0.07,4.689 0.23,9.381 -0.16,14.051 C 26.51,-23.871 20.53,-18.91 14.32,-19.6 8.09,-19.83 4.28,-26.42 4.47,-32.121 4.45,-47.82 4.43,-63.52 4.48,-79.211 c -0.1,-4.269 1.75,-8.978 5.91,-10.75 5.83,-2.42 14.12,-0.16 16.24,6.262 1.28,4.92 0.51,10.09 0.69,15.119 l 23.96,0 c 0.02,-7.699 0.29,-15.529 -1.54,-23.07 -4.29,-9.549 -11.99,-17.971 -21.89,-21.76 -5.62,-1.051 -11.42,-2.76 -17.15,-1.449 -16.67,2.048 -31.86,17.429 -30.72,34.769 -0.04,16.66 -0.02,33.32 -0.01,49.969 C -20.9,-17.02 -12.12,-4.57 0,0"
             style="fill:#ffffff;fill-opacity:1;fill-rule:nonzero;stroke:none"
             id="path50"
             inkscape:connector-curvature="0" /></g><g
           id="g52"
           transform="translate(406.8994,160.2217)"><path
             d="m 0,0 c 9.261,1.75 18.311,5.27 25.461,11.568 5.75,-0.388 11,-2.879 16.279,-4.978 8.321,-3.471 14.651,-10.721 18.2,-18.871 1.97,-8.26 1.5,-16.84 1.54,-25.27 -7.99,0.01 -15.98,0 -23.959,0 -0.26,5.51 0.709,11.18 -0.741,16.561 -2.219,7.01 -11.88,10.59 -17.729,5.779 -3.901,-3.269 -4.7,-8.631 -4.42,-13.43 0.069,-14.66 -0.04,-29.32 0.05,-43.98 -0.071,-4.08 1.49,-8.59 5.349,-10.529 6.061,-3.02 15.271,-0.391 17.01,6.689 0.921,4.74 0.351,9.609 0.481,14.41 l 23.95,0 c 0.019,-7.711 0.319,-15.551 -1.54,-23.099 -4.311,-9.551 -12.021,-18 -21.96,-21.75 -5.63,-1.041 -11.42,-2.76 -17.151,-1.42 -14.66,1.888 -28.049,13.859 -30.389,28.638 -0.59,14.692 -0.12,29.42 -0.271,44.121 0.151,6.549 -0.439,13.17 0.57,19.661 C -7.71,-9.941 -4.909,-3.91 0,0"
             style="fill:#ffffff;fill-opacity:1;fill-rule:nonzero;stroke:none"
             id="path54"
             inkscape:connector-curvature="0" /></g><g
           id="g56"
           transform="translate(554.3701,171.6709)"><path
             d="m 0,0 23.939,0 0,-95.83 c 15.79,0 31.581,0.01 47.371,0 l 0,-24.49 c -23.77,-0.01 -47.54,0 -71.31,0 C -0.01,-80.221 -0.01,-40.109 0,0"
             style="fill:#ffffff;fill-opacity:1;fill-rule:nonzero;stroke:none"
             id="path58"
             inkscape:connector-curvature="0" /></g><g
           id="g60"
           transform="translate(280.4199,123.6299)"><path
             d="m 0,0 c -5.05,-1.738 -10.53,-0.699 -15.77,-0.949 0,8.16 -0.01,16.32 0,24.49 6.35,-0.48 14.04,1.74 19.16,-3.16 C 9.45,14.701 7.65,3.342 0,0 m 22.62,-12.949 c 2.4,3.949 5.72,7.49 7.09,11.98 0.7,5.27 2.51,10.53 1.63,15.901 -0.53,3.209 -1.02,6.439 -1.88,9.58 -2.68,6.929 -7.81,12.779 -14.07,16.718 -16.06,-2.439 -32.52,-2.048 -48.47,0.971 -2.44,0.369 -4.6,1.6 -6.71,2.779 0.16,-39.08 0.02,-78.169 0.07,-117.259 7.98,0 15.96,-0.01 23.94,0 0.01,15.599 0,31.211 0.01,46.82 5.18,-0.17 10.49,0.551 15.58,-0.699 4.37,-1.08 7.47,-5.381 7.25,-9.871 0.11,-12.08 0,-24.17 0.04,-36.25 8.16,-0.01 16.33,0 24.5,0 0,11.439 -0.01,22.881 0.01,34.33 -0.27,8.97 -2.5,18.4 -8.99,25"
             style="fill:#ffffff;fill-opacity:1;fill-rule:nonzero;stroke:none"
             id="path62"
             inkscape:connector-curvature="0" /></g><g
           id="g64"
           transform="translate(207.98,122.6709)"><path
             d="m 0,0 -23.95,0 c 0.5,6.91 -1.94,15.27 3.62,20.73 4.66,5.42 14.54,4.991 18.23,-1.32 C 1.45,13.59 -0.49,6.43 0,0 M 24.46,12.959 C 23.84,18.939 23.29,25.279 19.97,30.48 16.46,36.52 11.01,41.439 4.51,44.061 -1.32,46.289 -7.14,49.76 -13.64,48.85 -18.82,47.93 -23.75,45.92 -28.55,43.83 -38.88,39.051 -47.02,28.58 -46.8,16.881 -46.85,-12.52 -46.81,-41.92 -46.82,-71.32 l 22.86,0 0,46.82 c 7.99,0.01 15.97,0.01 23.96,0 l 0,-46.82 c 8.17,-0.01 16.33,0 24.49,0 -0.02,28.09 0.06,56.189 -0.03,84.279"
             style="fill:#ffffff;fill-opacity:1;fill-rule:nonzero;stroke:none"
             id="path66"
             inkscape:connector-curvature="0" /></g><g
           id="g68"
           transform="translate(365.9697,122.6709)"><path
             d="m 0,0 -23.95,0 c 0.5,6.891 -1.92,15.221 3.58,20.689 4.66,5.471 14.59,5.041 18.29,-1.298 C 1.45,13.57 -0.479,6.43 0,0 m 24.46,12.949 c -0.62,6 -1.149,12.362 -4.5,17.571 -3.88,6.419 -9.87,12.05 -17.33,13.83 -5.319,1.42 -10.66,2.871 -16.14,3.531 -4.6,0.84 -8.83,-1.682 -13.02,-3.151 C -37.77,40.301 -47.01,29.41 -46.79,16.939 -46.86,-12.48 -46.8,-41.9 -46.82,-71.32 l 22.86,0 0,46.82 c 7.99,0.01 15.981,0 23.96,0 0.01,-15.6 0,-31.211 0.01,-46.82 8.16,-0.01 16.32,0 24.49,0 -0.03,28.09 0.05,56.179 -0.04,84.269"
             style="fill:#ffffff;fill-opacity:1;fill-rule:nonzero;stroke:none"
             id="path70"
             inkscape:connector-curvature="0" /></g><g
           id="g72"
           transform="translate(522.2002,133.6299)"><path
             d="m 0,0 c -0.04,-15.359 0.02,-30.719 -0.03,-46.078 0.059,-3.801 -1.491,-7.842 -4.93,-9.781 -4.65,-2.731 -11.48,-2.821 -15.29,1.4 -2.61,2.789 -2.84,6.811 -2.83,10.42 0.059,15.01 -0.03,30.019 0.04,45.029 -0.08,4.651 2.229,9.59 6.529,11.682 4.681,2.01 10.681,0.529 13.771,-3.58 C -0.63,6.57 0.109,3.23 0,0 M 24.319,-41 C 24.239,-26.689 24.39,-12.369 24.25,1.932 23.689,7.461 23.59,13.432 20.449,18.24 17.55,23.16 13.72,27.65 8.859,30.73 5.25,33.061 1.12,34.361 -2.82,36 c -4.241,1.762 -9.05,2.75 -13.55,1.41 -6.71,-2.539 -13.811,-4.689 -19.49,-9.26 -7.37,-5.629 -11.76,-14.939 -11.5,-24.199 -0.04,-16.33 -0.01,-32.66 -0.01,-48.99 0.08,-3.59 -0.13,-7.26 0.74,-10.779 3.71,-13.51 16.159,-24.34 30.1,-25.92 5.729,-1.321 11.54,0.359 17.15,1.488 9.699,3.75 17.22,11.951 21.59,21.24 1.75,5.811 2.2,11.961 2.109,18.01"
             style="fill:#ffffff;fill-opacity:1;fill-rule:nonzero;stroke:none"
             id="path74"
             inkscape:connector-curvature="0" /></g><g
           id="g76"
           transform="translate(169.6001,40.29)"><path
             d="M 0,0 C 2.76,1.701 6.11,0.49 9.07,0.182 9,-1.129 8.93,-2.449 8.85,-3.779 7.28,-2.459 6.29,0.391 3.9,0.15 -1.31,-0.359 -1.24,-9.469 3.85,-10.18 6.17,-10.25 7.36,-7.969 8.86,-6.6 8.8,-7.369 8.69,-8.93 8.64,-9.699 6.39,-10.5 3.97,-11.529 1.57,-10.719 -2.99,-9.559 -3.43,-2.609 0,0"
             style="fill:#fffffe;fill-opacity:1;fill-rule:nonzero;stroke:none"
             id="path78"
             inkscape:connector-curvature="0" /></g><g
           id="g80"
           transform="translate(194.6699,41.1201)"><path
             d="M 0,0 C 2.21,-0.08 4.42,-0.148 6.63,-0.24 6.8,-0.84 7.14,-2.029 7.31,-2.619 5.74,-1.818 4.18,-1.039 2.58,-0.33 2.49,-2.229 2.42,-4.148 2.37,-6.068 3.49,-5.58 4.6,-5.09 5.71,-4.59 5.67,-5.33 5.59,-6.809 5.56,-7.549 c -0.8,0.279 -2.39,0.83 -3.18,1.11 0.04,-1.241 0.14,-3.731 0.18,-4.981 1.93,0.5 3.8,1.211 5.67,1.881 l -0.56,-2.24 c -2.74,-0.03 -5.48,-0.03 -8.22,-0.03 0.29,0.45 0.87,1.37 1.16,1.819 C 0.62,-6.648 0.68,-3.279 0,0"
             style="fill:#ffffff;fill-opacity:1;fill-rule:nonzero;stroke:none"
             id="path82"
             inkscape:connector-curvature="0" /></g><g
           id="g84"
           transform="translate(218.1499,41.6299)"><path
             d="m 0,0 c 1.15,-0.1 2.3,-0.209 3.46,-0.318 2.19,-2.67 4.42,-5.321 6.7,-7.932 -0.06,2.74 0.26,5.611 -1,8.15 0.74,0.022 2.22,0.071 2.96,0.09 C 10.47,-3.988 11.47,-8.379 11.2,-12.559 8.21,-9.43 5.5,-6.049 2.72,-2.75 2.7,-5.359 2.69,-7.988 2.68,-10.609 c 0.6,-0.549 1.2,-1.1 1.8,-1.661 -1.48,0 -2.96,-0.009 -4.44,-0.029 0.52,0.6 1.05,1.19 1.58,1.779 C 1.59,-7.658 1.59,-4.799 1.58,-1.949 1.19,-1.459 0.39,-0.488 0,0"
             style="fill:#fffffe;fill-opacity:1;fill-rule:nonzero;stroke:none"
             id="path86"
             inkscape:connector-curvature="0" /></g><g
           id="g88"
           transform="translate(246.6997,41.3311)"><path
             d="m 0,0 c 3.4,0.129 6.81,0.129 10.22,-0.01 0.2,-0.691 0.59,-2.09 0.79,-2.781 C 9.58,-1.77 8.05,-0.9 6.33,-0.461 6.32,-4.32 5.08,-8.67 7.43,-12.09 6.34,-12.1 4.15,-12.109 3.05,-12.121 c 1.44,3.32 1.22,7 0.88,10.512 C 3.2,-1.25 2.47,-0.881 1.76,-0.51 1.2,-1.189 0.09,-2.551 -0.47,-3.23 -0.35,-2.42 -0.12,-0.811 0,0"
             style="fill:#fffffe;fill-opacity:1;fill-rule:nonzero;stroke:none"
             id="path90"
             inkscape:connector-curvature="0" /></g><g
           id="g92"
           transform="translate(348.7998,41.001)"><path
             d="M 0,0 C 2.54,0.529 5.08,-0.291 7.57,-0.699 7.36,-1.949 7.15,-3.211 6.96,-4.48 5.521,-2.949 4.29,0.221 1.68,-0.66 -3.2,-1.76 -2.64,-10.689 2.53,-10.891 4.561,-10.66 5.68,-8.66 7.09,-7.391 7.07,-8.121 7.05,-9.58 7.03,-10.311 4.71,-11.199 2.16,-12.33 -0.33,-11.359 -5.32,-9.91 -5.1,-1.1 0,0"
             style="fill:#fffffe;fill-opacity:1;fill-rule:nonzero;stroke:none"
             id="path94"
             inkscape:connector-curvature="0" /></g><g
           id="g96"
           transform="translate(371.25,41.3311)"><path
             d="M 0,0 C 1.75,0.02 3.5,0.039 5.26,0.07 4.91,-0.311 4.2,-1.061 3.85,-1.43 3.899,-4.15 3.67,-6.91 4.14,-9.609 4.85,-11.76 8.22,-11.76 9.05,-9.68 9.56,-6.381 9.64,-2.881 8.42,0.289 9.72,0.23 11.02,0.18 12.33,0.141 11.14,-3 11.8,-6.391 11.25,-9.621 9.77,-12.76 4.59,-12.77 2.39,-10.439 1.22,-7.57 1.95,-4.33 1.77,-1.32 1.33,-0.99 0.439,-0.33 0,0"
             style="fill:#ffffff;fill-opacity:1;fill-rule:nonzero;stroke:none"
             id="path98"
             inkscape:connector-curvature="0" /></g><g
           id="g100"
           transform="translate(399.9102,41.001)"><path
             d="M 0,0 C 1.2,0.01 2.399,0.02 3.62,0.029 1.91,-3.4 2.71,-7.33 2.689,-11.02 c 2.13,0.02 4.161,0.67 6.05,1.6 -0.149,-0.58 -0.469,-1.73 -0.63,-2.31 -2.889,-0.01 -5.79,-0.01 -8.679,0.019 0.34,0.481 1.02,1.432 1.36,1.9 C 0.81,-6.52 0.92,-3.189 0,0"
             style="fill:#fffffe;fill-opacity:1;fill-rule:nonzero;stroke:none"
             id="path102"
             inkscape:connector-curvature="0" /></g><g
           id="g104"
           transform="translate(424.7002,41.3799)"><path
             d="m 0,0 c 3.359,0.07 6.72,0.061 10.08,-0.039 0.19,-0.779 0.569,-2.34 0.76,-3.119 -0.74,0.75 -1.46,1.519 -2.151,2.299 -0.679,-0.09 -2.049,-0.27 -2.729,-0.36 -0.03,-3.189 -0.021,-6.39 0,-9.599 0.51,-0.282 1.519,-0.84 2.029,-1.121 -1.819,-0.061 -3.63,-0.129 -5.439,-0.18 0.36,0.461 1.059,1.39 1.41,1.849 C 3.939,-7.029 3.93,-3.789 3.779,-0.568 2.12,-1.059 0.6,-1.879 -0.811,-2.859 -0.61,-2.148 -0.2,-0.719 0,0"
             style="fill:#ffffff;fill-opacity:1;fill-rule:nonzero;stroke:none"
             id="path106"
             inkscape:connector-curvature="0" /></g><g
           id="g108"
           transform="translate(451,41.5303)"><path
             d="M 0,0 C 1.58,-0.09 3.16,-0.17 4.74,-0.24 4.399,-0.57 3.7,-1.219 3.36,-1.539 3.41,-4.25 3.16,-7.01 3.63,-9.699 c 0.47,-2.211 4.24,-2.321 4.92,-0.16 0.47,2.789 0.22,5.63 0.29,8.429 -0.401,0.33 -1.2,1.01 -1.59,1.34 1.7,0.01 3.42,0 5.14,0 -0.34,-0.369 -1.01,-1.109 -1.34,-1.48 -0.1,-2.85 0.349,-5.809 -0.44,-8.59 C 8.8,-12.969 3.75,-12.959 1.729,-10.41 0.61,-7.02 2.28,-3.029 0,0"
             style="fill:#ffffff;fill-opacity:1;fill-rule:nonzero;stroke:none"
             id="path110"
             inkscape:connector-curvature="0" /></g><g
           id="g112"
           transform="translate(478.9795,41.4209)"><path
             d="M 0,0 C 2.881,-0.369 7.551,0.83 8.54,-2.939 8.94,-4.881 7.011,-5.82 5.9,-6.99 7.381,-8.801 9,-10.49 10.771,-12.041 9.95,-12.029 8.32,-12.01 7.5,-12 c -1.119,1.9 -2.229,3.801 -3.47,5.609 0.96,1.041 2.811,1.801 2.311,3.522 -0.16,1.849 -2.29,1.859 -3.57,2.5 0.459,-3.871 -1.581,-8.83 1.57,-11.852 -1.04,0 -3.131,0.01 -4.181,0.022 C 1.091,-8.211 1.28,-3.93 0,0"
             style="fill:#fffffe;fill-opacity:1;fill-rule:nonzero;stroke:none"
             id="path114"
             inkscape:connector-curvature="0" /></g><g
           id="g116"
           transform="translate(532.8096,41.0615)"><path
             d="M 0,0 C 1.25,-0.051 2.511,-0.102 3.771,-0.15 3.46,-0.551 2.851,-1.34 2.54,-1.74 2.53,-4.861 2.53,-7.971 2.551,-11.09 c 2.179,0.059 4.26,0.699 6.239,1.6 -0.189,-0.571 -0.56,-1.711 -0.75,-2.281 -2.72,-0.02 -5.43,-0.03 -8.14,-0.09 C 1.051,-8 0.91,-3.891 0,0"
             style="fill:#fffffe;fill-opacity:1;fill-rule:nonzero;stroke:none"
             id="path118"
             inkscape:connector-curvature="0" /></g><g
           id="g120"
           transform="translate(276.4897,35.5303)"><path
             d="M 0,0 C -1.53,1.191 -0.14,3.951 -0.53,5.66 0.64,4.891 3.08,4.861 3.07,2.99 3.62,1.141 1.78,-0.49 0,0 m 2.67,-1.16 c 1.14,1.23 3.32,2.51 2.46,4.521 -1.15,3.2 -5.26,2.18 -7.88,2.619 0.43,-4.08 0.45,-8.199 -0.05,-12.279 0.87,-0.01 2.6,-0.041 3.47,-0.051 -0.96,1.53 -1.99,3.621 -0.62,5.221 0.29,0.09 0.86,0.279 1.15,0.369 1.04,-1.76 2.04,-3.56 3,-5.379 0.79,0 2.39,-0.011 3.18,-0.011 -1.64,1.601 -3.23,3.25 -4.71,4.99"
             style="fill:#ffffff;fill-opacity:1;fill-rule:nonzero;stroke:none"
             id="path122"
             inkscape:connector-curvature="0" /></g><g
           id="g124"
           transform="translate(307.5,32.5811)"><path
             d="m 0,0 c -0.75,-2.609 -4.61,-3.029 -5.88,-0.621 -1.19,2.74 -0.75,6.9 2.09,8.451 C 0.58,8.85 1.36,2.92 0,0 M -5.69,8.359 C -9.16,7.02 -9.25,2.27 -7.88,-0.621 -5.37,-5.17 3.34,-3.641 2.88,2.08 c 0.7,4.6 -4.44,8.219 -8.57,6.279"
             style="fill:#fffffe;fill-opacity:1;fill-rule:nonzero;stroke:none"
             id="path126"
             inkscape:connector-curvature="0" /></g><g
           id="g128"
           transform="translate(512.0801,34.3799)"><path
             d="m 0,0 c -0.92,2.25 -3.46,4.592 -1.51,7.041 2.43,-3.93 3.119,-8.891 6.6,-12.17 l -4.13,0 c -0.12,1.459 -0.231,2.91 -0.33,4.35 -1.61,0.05 -3.2,0.099 -4.79,0.131 -0.481,-1.112 -0.941,-2.241 -1.39,-3.372 0.61,-0.24 1.83,-0.699 2.43,-0.939 -1.68,-0.029 -3.36,-0.061 -5.03,-0.08 0.71,0.49 1.43,0.961 2.15,1.43 0.55,1.429 1.1,2.859 1.63,4.291 C -3.28,0.512 -1.09,0.172 0,0"
             style="fill:#fffffe;fill-opacity:1;fill-rule:nonzero;stroke:none"
             id="path130"
             inkscape:connector-curvature="0" /></g><g
           id="g132"
           transform="translate(508.3994,37.3115)"><path
             d="M 0,0 C 3.32,0.129 -1.31,-3.102 0,0"
             style="fill:#fffffe;fill-opacity:1;fill-rule:nonzero;stroke:none"
             id="path134"
             inkscape:connector-curvature="0" /></g></g></g></g></svg>