<?xml version="1.0" encoding="UTF-8" standalone="no"?>
<!-- Created with Inkscape (http://www.inkscape.org/) -->

<svg
   xmlns:dc="http://purl.org/dc/elements/1.1/"
   xmlns:cc="http://creativecommons.org/ns#"
   xmlns:rdf="http://www.w3.org/1999/02/22-rdf-syntax-ns#"
   xmlns:svg="http://www.w3.org/2000/svg"
   xmlns="http://www.w3.org/2000/svg"
   xmlns:sodipodi="http://sodipodi.sourceforge.net/DTD/sodipodi-0.dtd"
   xmlns:inkscape="http://www.inkscape.org/namespaces/inkscape"
   id="svg2"
   version="1.1"
   inkscape:version="0.48.4 r9939"
   width="39"
   height="28.714193"
   xml:space="preserve"
   sodipodi:docname="logo-xs.svg"><metadata
     id="metadata8"><rdf:RDF><cc:Work
         rdf:about=""><dc:format>image/svg+xml</dc:format><dc:type
           rdf:resource="http://purl.org/dc/dcmitype/StillImage" /><dc:title /></cc:Work></rdf:RDF></metadata><defs
     id="defs6"><clipPath
       clipPathUnits="userSpaceOnUse"
       id="clipPath18"><path
         d="m 0,425.2 708.66,0 L 708.66,0 0,0 0,425.2 z"
         id="path20"
         inkscape:connector-curvature="0" /></clipPath><clipPath
       clipPathUnits="userSpaceOnUse"
       id="clipPath28"><path
         d="m 0,425.2 708.66,0 L 708.66,0 0,0 0,425.2 z"
         id="path30"
         inkscape:connector-curvature="0" /></clipPath></defs><sodipodi:namedview
     pagecolor="#ffffff"
     bordercolor="#666666"
     borderopacity="1"
     objecttolerance="10"
     gridtolerance="10"
     guidetolerance="10"
     inkscape:pageopacity="0"
     inkscape:pageshadow="2"
     inkscape:window-width="1366"
     inkscape:window-height="729"
     id="namedview4"
     showgrid="false"
     inkscape:zoom="1.2081019"
     inkscape:cx="-225.12311"
     inkscape:cy="10.933889"
     inkscape:window-x="0"
     inkscape:window-y="0"
     inkscape:window-maximized="1"
     inkscape:current-layer="g10"
     fit-margin-top="0"
     fit-margin-left="0"
     fit-margin-right="0"
     fit-margin-bottom="0" /><g
     id="g10"
     inkscape:groupmode="layer"
     inkscape:label="LogoCaracol"
     transform="matrix(1.25,0,0,-1.25,-157.99818,120.22491)"><g
       id="g14"><g
         id="g16"
         clip-path="url(#clipPath18)"><path
           d="M 708.66,0 0,0 l 0,425.2 708.66,0 0,-425.2 z"
           style="fill:none;stroke:#2b2b2a;stroke-width:1;stroke-linecap:butt;stroke-linejoin:miter;stroke-miterlimit:10;stroke-opacity:1;stroke-dasharray:none"
           id="path22"
           inkscape:connector-curvature="0" /></g></g><g
       id="g3181"
       transform="matrix(0.3028032,0,0,0.3028032,88.124662,51.040783)"><g
         transform="matrix(0.32692326,0,0,0.32692326,154.0827,148.28677)"
         id="g32"><path
           inkscape:connector-curvature="0"
           id="path34"
           style="fill:#ffffff;fill-opacity:1;fill-rule:nonzero;stroke:none"
           d="m 0,0 c 10.86,3.95 22.75,2.44 33.7,-0.36 -5.71,-0.67 -11.89,-2.22 -15.57,-7.01 -4.55,-5.46 -4.76,-13.04 -3.47,-19.71 2.7,-16.62 0.95,-33.58 -2.28,-49.99 -5.81,-28.77 -19.41,-55.75 -38.32,-78.15 -11.89,-14.23 -25.77,-26.75 -40.86,-37.51 24.63,22.75 44.69,51.03 55.24,83.04 7.63,22.94 10.16,47.5 7.9,71.55 -0.8,7.81 -3.22,15.31 -4.63,23 C -9.34,-8.96 -6.03,-2.2 0,0" /></g><g
         transform="matrix(0.32692326,0,0,0.32692326,161.73604,145.77273)"
         id="g36"><path
           inkscape:connector-curvature="0"
           id="path38"
           style="fill:#fffffe;fill-opacity:1;fill-rule:nonzero;stroke:none"
           d="m 0,0 c 4.76,3.46 10.96,3.42 16.58,3.28 2.04,0.09 3.68,-1.26 5.26,-2.36 3.81,-2.82 7.58,-6.11 9.31,-10.66 2.54,-6.42 4.38,-13.1 6.07,-19.79 3.14,-18.23 1.65,-37.36 -4.9,-54.71 -5.87,-15.8 -15.53,-29.9 -26.47,-42.62 -20.62,-23.86 -46.45,-42.68 -73.78,-58.14 -13.12,-7.2 -26.26,-14.39 -39.7,-20.96 -1.77,3.82 1.93,6.15 4.76,7.789 28.76,17.631 54.33,41.061 72.3,69.771 16.39,25.96 25.64,56.27 26.98,86.93 0.65,9.08 -0.72,18.11 -1.82,27.09 C -6.04,-9.13 -4.47,-3.2 0,0" /></g><g
         transform="matrix(0.32692326,0,0,0.32692326,193.24804,142.08177)"
         id="g40"><path
           inkscape:connector-curvature="0"
           id="path42"
           style="fill:#ffffff;fill-opacity:1;fill-rule:nonzero;stroke:none"
           d="m 0,0 c 12.88,11.93 31.45,16.37 48.61,14.12 26.21,-3.37 49.37,-22.75 57.87,-47.69 5.65,-15.94 5.621,-33.8 -0.12,-49.71 C 101.051,-98.4 90.7,-111.33 78.45,-121.47 66.021,-131.71 50.33,-138 34.2,-138.73 c -10.47,-0.71 -20.809,1.49 -31.179,2.5 5.349,-6.73 11.719,-12.87 15.259,-20.85 4.79,-9.99 5.151,-22.24 -0.189,-32.1 -7.57,-14.09 -24.061,-22.519 -39.881,-21.39 -17.739,1.859 -34.239,10.099 -52.149,10.849 -13.54,0.75 -27.02,-1.468 -40.221,-4.279 -20.31,-4.51 -41.79,-5.09 -62.04,0.02 20.79,7.73 42.52,12.97 62.68,22.39 28.84,13.209 54.18,33.29 75.291,56.84 6.16,6.51 11.189,13.94 16.349,21.23 16.721,-11.14 36.87,-17.34 57.01,-16.58 13.141,0.5 26.08,5.33 36.19,13.76 24.85,19.58 28.97,59.52 10.08,84.5 -8.179,10.71 -20.57,18.62 -34.21,19.54 -10.99,0.7 -22.74,-1.31 -31.65,-8.16 -11.85,-9 -18.5,-23.94 -18.479,-38.69 0,-6.49 1.74,-13.12 5.7,-18.35 6.689,-8.78 18.349,-13.88 29.33,-11.68 6.279,1.22 13.21,3.71 16.43,9.69 2.53,4.43 1.87,9.73 1.03,14.52 -5.011,-2.99 -9.99,-7.53 -16.25,-6.79 -6.891,1.14 -13.04,7.45 -12.841,14.65 0.261,8.98 6.971,17.53 15.83,19.49 10.681,2.36 22.301,-3.11 27.94,-12.35 4.081,-6.55 4.67,-14.59 4.31,-22.11 -0.58,-10.78 -6.229,-21.26 -15.39,-27.11 -17.08,-11.55 -41.44,-9.12 -56.75,4.35 -9.75,8.29 -14.79,21.04 -15.33,33.63 C -20.12,-32.53 -13.609,-13.09 0,0" /></g><g
         transform="matrix(0.32692326,0,0,0.32692326,170.56934,146.42004)"
         id="g44"><path
           inkscape:connector-curvature="0"
           id="path46"
           style="fill:#ffffff;fill-opacity:1;fill-rule:nonzero;stroke:none"
           d="m 0,0 c 6.03,-1.9 12.341,-3.47 17.48,-7.36 5.93,-4.35 12.201,-9.53 14.041,-17 1.66,-6.26 2.65,-12.68 3.62,-19.07 1.95,-24.49 -4.901,-49.53 -19.021,-69.63 -14.729,-21.04 -34.64,-37.97 -56.05,-51.91 -20.949,-13.58 -43.699,-24.13 -66.98,-33.07 28.4,15.01 55.761,32.67 78.471,55.57 18.71,19.02 35.299,41.58 41.4,68 4.029,18.14 3.97,37.54 -2.08,55.24 C 8.9,-12.04 6.07,-4.74 0,0" /></g></g></g></svg>